<svg width="1056" height="147" viewBox="0 0 1056 147" fill="none" xmlns="http://www.w3.org/2000/svg">
<path d="M61.712 13.948C61.712 19.876 56.876 24.712 50.948 24.712H45.956C40.34 24.712 36.44 27.364 36.44 34.384V35.788H44.708C50.324 35.788 54.692 40.156 54.692 45.772C54.692 51.232 50.324 55.756 44.708 55.756H36.44V106.612C36.44 113.476 30.824 118.936 23.96 118.936C17.096 118.936 11.636 113.476 11.636 106.612V55.756H10.388C4.928 55.756 0.404 51.232 0.404 45.772C0.404 40.156 4.928 35.788 10.388 35.788H11.636V34.384C11.636 14.884 23.336 3.18399 42.524 3.18399H50.948C56.876 3.18399 61.712 8.01999 61.712 13.948ZM97.0399 13.792C97.0399 21.28 90.9559 27.364 83.3119 27.364C75.8239 27.364 69.7399 21.28 69.7399 13.792C69.7399 6.148 75.8239 0.0639935 83.3119 0.0639935C90.9559 0.0639935 97.0399 6.148 97.0399 13.792ZM70.9879 106.612V47.332C70.9879 40.468 76.6039 34.852 83.3119 34.852C90.1759 34.852 95.7919 40.468 95.7919 47.332V106.612C95.7919 113.476 90.1759 118.936 83.3119 118.936C76.6039 118.936 70.9879 113.476 70.9879 106.612ZM147.445 108.952C147.445 116.128 142.297 118.936 134.965 118.936C131.377 118.936 127.633 117.844 124.357 115.504C119.365 111.916 115.153 105.364 115.153 95.224V17.38C115.153 10.516 120.769 5.05599 127.477 5.05599C134.341 5.05599 139.957 10.516 139.957 17.38V93.664C139.957 98.5 142.297 99.748 144.481 101.932C145.885 103.492 147.445 105.676 147.445 108.952ZM275.683 106.612C275.683 113.476 270.067 118.936 263.203 118.936C256.495 118.936 250.879 113.476 250.879 106.612V67.924C250.879 63.244 249.631 58.096 241.831 58.096C237.775 58.096 234.187 59.812 231.691 62.62L231.847 64.492V106.612C231.847 113.476 226.231 118.936 219.367 118.936C212.503 118.936 207.043 113.476 207.043 106.612V67.924C207.043 63.244 205.795 58.096 197.995 58.096C193.939 58.096 190.351 59.812 187.855 62.62V106.612C187.855 113.476 182.395 118.936 175.531 118.936C168.667 118.936 163.051 113.476 163.051 106.612V61.06C163.051 56.38 160.711 54.976 158.683 52.792C157.123 51.232 155.563 49.048 155.563 45.928C155.563 38.752 160.711 35.788 168.043 35.788C171.631 35.788 175.375 36.88 178.651 39.22C179.899 40.156 181.147 41.248 182.239 42.652C187.855 37.816 195.343 34.852 205.171 34.852C214.999 34.852 221.551 37.66 225.763 42.808C231.379 37.816 239.023 34.852 249.007 34.852C268.663 34.852 275.683 46.24 275.683 64.492V106.612ZM459.41 106.612C459.41 113.476 453.794 118.936 446.93 118.936C440.222 118.936 434.606 113.476 434.606 106.612V67.924C434.606 63.244 433.358 58.096 425.558 58.096C421.502 58.096 417.914 59.812 415.418 62.62L415.574 64.492V106.612C415.574 113.476 409.958 118.936 403.094 118.936C396.23 118.936 390.77 113.476 390.77 106.612V67.924C390.77 63.244 389.522 58.096 381.722 58.096C377.666 58.096 374.078 59.812 371.582 62.62V106.612C371.582 113.476 366.122 118.936 359.258 118.936C352.394 118.936 346.778 113.476 346.778 106.612V61.06C346.778 56.38 344.438 54.976 342.41 52.792C340.85 51.232 339.29 49.048 339.29 45.928C339.29 38.752 344.438 35.788 351.77 35.788C355.358 35.788 359.102 36.88 362.378 39.22C363.626 40.156 364.874 41.248 365.966 42.652C371.582 37.816 379.07 34.852 388.898 34.852C398.726 34.852 405.278 37.66 409.49 42.808C415.106 37.816 422.75 34.852 432.734 34.852C452.39 34.852 459.41 46.24 459.41 64.492V106.612ZM550.402 108.952C550.402 116.128 545.41 118.936 538.39 118.936C535.426 118.936 532.462 118.468 529.498 116.908C527.782 115.972 525.91 114.724 524.506 113.008C518.422 117.532 509.998 118.936 503.29 118.936C484.882 118.936 474.742 109.42 474.742 93.82V92.728C474.742 77.284 486.598 68.704 506.722 68.704H518.734V66.052C518.734 58.72 516.55 54.196 508.906 54.196C504.226 54.196 500.95 55.132 498.298 56.068C495.178 57.16 492.838 58.408 489.874 58.408C484.258 58.408 480.514 54.196 480.514 49.204C480.514 43.9 484.726 40.468 490.186 38.284C497.206 35.476 506.098 34.852 511.09 34.852C533.866 34.852 543.382 44.368 543.382 69.172V93.664C543.382 98.5 545.254 99.748 547.438 101.932C548.842 103.492 550.402 105.676 550.402 108.952ZM499.234 94.288C499.234 99.592 502.978 101.932 508.906 101.932C514.366 101.932 518.734 98.656 518.734 91.636V86.02H509.842C502.354 86.02 499.234 88.672 499.234 93.352V94.288ZM606.85 108.172C602.95 110.512 597.022 112.384 591.406 112.384C569.566 112.384 562.702 99.592 562.702 75.568V71.668C562.702 48.112 570.502 34.852 591.406 34.852C598.114 34.852 604.198 37.66 608.098 41.404C609.97 37.504 613.87 34.852 619.174 34.852C626.974 34.852 631.654 40.468 631.654 47.332V110.2C631.654 134.38 616.522 146.548 593.59 146.548C588.754 146.548 579.394 146.08 572.842 142.96C568.786 140.932 565.978 137.968 565.978 133.444C565.978 127.984 570.346 123.616 575.806 123.616C578.302 123.616 579.862 124.552 582.202 125.332C584.386 126.112 587.038 126.892 591.718 126.892C600.766 126.892 606.85 122.836 606.85 111.916V108.172ZM587.506 80.092C587.506 87.892 589.846 91.792 597.334 91.792C600.142 91.792 604.042 90.544 606.85 88.516V59.5C604.354 57.316 600.61 55.444 597.334 55.444C590.47 55.444 587.506 59.656 587.506 67.768V80.092ZM722.55 108.952C722.55 116.128 717.558 118.936 710.538 118.936C707.574 118.936 704.61 118.468 701.646 116.908C699.93 115.972 698.058 114.724 696.654 113.008C690.57 117.532 682.146 118.936 675.438 118.936C657.03 118.936 646.89 109.42 646.89 93.82V92.728C646.89 77.284 658.746 68.704 678.87 68.704H690.882V66.052C690.882 58.72 688.698 54.196 681.054 54.196C676.374 54.196 673.098 55.132 670.446 56.068C667.326 57.16 664.986 58.408 662.022 58.408C656.406 58.408 652.662 54.196 652.662 49.204C652.662 43.9 656.874 40.468 662.334 38.284C669.354 35.476 678.246 34.852 683.238 34.852C706.014 34.852 715.53 44.368 715.53 69.172V93.664C715.53 98.5 717.402 99.748 719.586 101.932C720.99 103.492 722.55 105.676 722.55 108.952ZM671.382 94.288C671.382 99.592 675.126 101.932 681.054 101.932C686.514 101.932 690.882 98.656 690.882 91.636V86.02H681.99C674.502 86.02 671.382 88.672 671.382 93.352V94.288ZM794.911 46.24C794.911 49.828 793.819 53.104 791.167 56.692L762.307 96.784H784.303C790.075 96.784 794.911 101.464 794.911 107.392C794.911 113.164 790.075 118 784.303 118H741.091C736.723 118 730.171 113.788 730.171 105.988C730.171 103.492 730.951 100.996 732.511 98.812L762.619 57.004H742.807C737.035 57.004 732.199 52.324 732.199 46.396C732.199 40.468 737.035 35.788 742.807 35.788H783.367C788.359 35.788 794.911 38.44 794.911 46.24ZM833.927 13.792C833.927 21.28 827.843 27.364 820.199 27.364C812.711 27.364 806.627 21.28 806.627 13.792C806.627 6.148 812.711 0.0639935 820.199 0.0639935C827.843 0.0639935 833.927 6.148 833.927 13.792ZM807.875 106.612V47.332C807.875 40.468 813.491 34.852 820.199 34.852C827.063 34.852 832.679 40.468 832.679 47.332V106.612C832.679 113.476 827.063 118.936 820.199 118.936C813.491 118.936 807.875 113.476 807.875 106.612ZM923.488 106.612C923.488 113.476 917.872 118.936 911.008 118.936C904.144 118.936 898.684 113.476 898.684 106.612V67.924C898.684 63.244 897.436 58.096 889.636 58.096C885.58 58.096 881.992 59.812 879.496 62.62V106.612C879.496 113.476 874.036 118.936 867.172 118.936C860.308 118.936 854.692 113.476 854.692 106.612V61.06C854.692 56.38 852.352 54.976 850.324 52.792C848.764 51.232 847.204 49.048 847.204 45.928C847.204 38.752 852.352 35.788 859.684 35.788C863.272 35.788 867.016 36.88 870.292 39.22C871.54 40.156 872.788 41.248 873.88 42.652C879.496 37.816 886.984 34.852 896.812 34.852C916.468 34.852 923.488 46.552 923.488 64.804V106.612ZM1008.82 75.88C1008.82 80.716 1005.08 84.46 1000.56 84.46H965.925V86.956C965.925 94.756 969.669 99.436 977.001 99.436C981.993 99.436 985.269 98.656 987.765 97.876C991.041 96.784 993.225 95.692 996.501 95.692C1002.12 95.692 1005.08 99.592 1005.08 105.052C1005.08 110.2 1000.87 113.632 995.409 115.816C989.169 118.156 981.213 118.936 975.129 118.936C949.857 118.936 941.277 102.712 941.277 84.148V69.64C941.277 51.232 952.041 34.852 975.285 34.852C999.309 34.852 1008.82 50.764 1008.82 69.328V75.88ZM965.925 66.364H985.113V64.648C985.113 57.472 981.993 53.728 975.753 53.728C969.513 53.728 965.925 57.472 965.925 64.648V66.364Z" fill="black"/>
<path d="M1055.84 103.96C1055.84 112.54 1048.82 119.404 1040.24 119.404C1031.66 119.404 1024.8 112.54 1024.8 103.96C1024.8 95.38 1031.66 88.36 1040.24 88.36C1048.82 88.36 1055.84 95.38 1055.84 103.96Z" fill="#FE5F00"/>
</svg>
